<svg width="1200" height="258" viewBox="0 0 1200 258" fill="none" xmlns="http://www.w3.org/2000/svg">
<path d="M0 44C0 23.2582 0 12.8873 6.44365 6.44365C12.8873 0 23.2582 0 44 0H377.135C381.352 0 385.449 1.39959 388.785 3.97927L389.973 4.89817C396.479 9.92922 405.634 9.65679 411.829 4.24781C414.966 1.50911 418.989 0 423.153 0H759.786C763.983 0 768.051 1.4546 771.296 4.11616C777.987 9.60438 787.622 9.60438 794.314 4.11616C797.559 1.4546 801.626 0 805.823 0H1156C1176.74 0 1187.11 0 1193.56 6.44365C1200 12.8873 1200 23.2582 1200 44V214C1200 234.742 1200 245.113 1193.56 251.556C1187.11 258 1176.74 258 1156 258H805.823C801.626 258 797.559 256.545 794.314 253.884C787.622 248.396 777.987 248.396 771.296 253.884C768.051 256.545 763.983 258 759.786 258H424.187C419.99 258 415.923 256.545 412.678 253.884C405.986 248.396 396.351 248.396 389.66 253.884C386.415 256.545 382.347 258 378.15 258H44.0001C23.2582 258 12.8873 258 6.44365 251.556C0 245.113 0 234.742 0 214V44Z" fill="url(#paint0_linear_43_48)"/>
<defs>
<linearGradient id="paint0_linear_43_48" x1="14.0245" y1="269.546" x2="1049.46" y2="-282.408" gradientUnits="userSpaceOnUse">
<stop stop-color="#8D2131"/>
<stop offset="1" stop-color="#BC3138"/>
</linearGradient>
</defs>
</svg>
